<svg xmlns="http://www.w3.org/2000/svg" width="44" height="30" style=""><rect id="backgroundrect" width="100%" height="100%" x="0" y="0" fill="none" stroke="none" style="" class=""/><g class="currentLayer" style=""><title>Layer 1</title><path fill-rule="evenodd" d="M42.9109992980957,11.604477882385254 L35.2130012512207,7.160477638244629 v20.645000457763672 h9 v2 h-44 v-2 h4 v-12.720000267028809 l-3.7279999256134033,0.9330000281333923 L0,14.07847785949707 l21.09000015258789,-5.2729997634887695 h3.121999979019165 a9.552000045776367,9.552000045776367 0 0 0 -0.6800000071525574,2.559000015258789 l-0.4830000102519989,3.9749999046325684 l5.164000034332275,-2.9820001125335693 v15.447999954223633 h5 V7.161478042602539 l-7.696000099182129,4.443999767303467 a7.501999855041504,7.501999855041504 0 0 1 2.565000057220459,-4.800000190734863 h-4.119999885559082 a7.488999843597412,7.488999843597412 0 0 1 6.645999908447266,-2.9730000495910645 l-5.591000080108643,-3.2279999256134033 a7.48799991607666,7.48799991607666 0 0 1 6.696000099182129,0.4020000100135803 c1.0390000343322754,0.6000000238418579 1.8799999952316284,1.409999966621399 2.5,2.3469998836517334 a7.460999965667725,7.460999965667725 0 0 1 2.5,-2.3469998836517334 a7.489999771118164,7.489999771118164 0 0 1 6.697999954223633,-0.4020000100135803 l-5.5929999351501465,3.2279999256134033 a7.48799991607666,7.48799991607666 0 0 1 6.645999908447266,2.9730000495910645 h-4.119999885559082 a7.498000144958496,7.498000144958496 0 0 1 2.566999912261963,4.800000190734863 zM24.21299934387207,27.8054780960083 v-10 h-6 v10 h6 zm-11,-8 a2,2 0 1 1 -4,0 a2,2 0 0 1 4,0 z" fill="#667EEA" id="svg_3" class=""/></g></svg>